<svg width="355" height="150" viewBox="0 0 355 150" fill="none" xmlns="http://www.w3.org/2000/svg">
<g clip-path="url(#clip0_172_107)">
<path d="M33.3446 3.04976C33.3297 3.04898 33.3152 3.04431 33.3026 3.0362C33.2901 3.0281 33.2799 3.01687 33.2732 3.00364C33.2665 2.99042 33.2635 2.97568 33.2644 2.96093C33.2654 2.94617 33.2703 2.93191 33.2786 2.91963C33.7216 2.34339 35.5594 0.0663631 37.237 0.00130389C38.9146 -0.0637553 41.0069 2.3248 41.4781 2.91963C41.4902 2.92996 41.4986 2.94382 41.5021 2.95917C41.5057 2.97451 41.5042 2.99059 41.4979 3.00506C41.4916 3.01953 41.4809 3.03162 41.4672 3.03966C41.4534 3.0477 41.4375 3.05123 41.4216 3.04976H33.3446Z" fill="white"/>
<path d="M30.6303 0.0107422C30.7057 0.0107422 30.7622 0.103659 30.7057 0.159424C29.0658 1.82308 22.8266 3.04989 15.3717 3.04989C7.72828 3.04989 1.44203 1.86955 0.0189009 0.159424C0.00839925 0.145616 0.00195011 0.129191 0.000378263 0.112C-0.00119359 0.0948094 0.00215725 0.0775184 0.00998473 0.0620802C0.0178122 0.0466421 0.0298403 0.0336579 0.0447291 0.0245836C0.0596178 0.0155093 0.0767543 0.0107422 0.094257 0.0107422H30.6303Z" fill="white"/>
<path d="M76.3306 3.04989C76.3481 3.04989 76.3653 3.04513 76.3802 3.03605C76.3951 3.02698 76.4071 3.01399 76.4149 2.99856C76.4227 2.98312 76.4261 2.96583 76.4245 2.94864C76.4229 2.93145 76.4166 2.91502 76.4061 2.90121C74.7756 1.23756 68.5364 0.0107422 61.0815 0.0107422C53.4381 0.0107422 47.1424 1.19109 45.7193 2.90121C45.7081 2.91565 45.7015 2.93298 45.7002 2.95108C45.6989 2.96917 45.7031 2.98723 45.7121 3.00304C45.7211 3.01885 45.7346 3.03169 45.7509 3.04002C45.7673 3.04835 45.7857 3.05178 45.804 3.04989H76.3306Z" fill="white"/>
<path d="M177.674 52.374L166.242 69.3173L162.472 58.0992C166.652 54.4102 172.065 52.3715 177.674 52.374Z" fill="white"/>
<path d="M180.954 52.6064C186.622 53.4097 191.776 56.2862 195.393 60.6644L173.414 63.7965L180.954 52.6064Z" fill="white"/>
<path d="M197.221 63.2202C199.387 66.7482 200.522 70.7976 200.501 74.9216C200.504 76.7736 200.273 78.6187 199.813 80.4144L184.375 65.0698L197.221 63.2202Z" fill="white"/>
<path d="M198.852 83.4352C197.691 86.2262 195.977 88.7605 193.81 90.8896C191.643 93.0186 189.066 94.6995 186.232 95.8337L187.589 72.2451L198.852 83.4352Z" fill="white"/>
<path d="M183.291 96.8189C181.444 97.2837 179.544 97.5148 177.637 97.5066C173.809 97.5012 170.045 96.5421 166.695 94.7184L184.083 82.4873L183.291 96.8189Z" fill="white"/>
<path d="M160.201 60.3857C156.719 64.45 154.812 69.601 154.82 74.9218V75.0426L166.704 79.6432L160.201 60.3857Z" fill="white"/>
<path d="M164.122 93.1011L174.555 85.768L155.055 78.2119C155.494 81.1588 156.521 83.9907 158.077 86.5433C159.633 89.096 161.688 91.3186 164.122 93.0825V93.1011Z" fill="white"/>
<path d="M177.099 80.712C180.738 80.712 183.687 77.8034 183.687 74.2154C183.687 70.6274 180.738 67.7188 177.099 67.7188C173.461 67.7188 170.512 70.6274 170.512 74.2154C170.512 77.8034 173.461 80.712 177.099 80.712Z" fill="white"/>
<path d="M181.784 73.5739C183.475 73.5739 184.847 72.2216 184.847 70.5533C184.847 68.8851 183.475 67.5327 181.784 67.5327C180.092 67.5327 178.721 68.8851 178.721 70.5533C178.721 72.2216 180.092 73.5739 181.784 73.5739Z" fill="white"/>
<path d="M177.919 75.2655C178.58 75.2655 179.116 74.7371 179.116 74.0852C179.116 73.4333 178.58 72.9048 177.919 72.9048C177.258 72.9048 176.722 73.4333 176.722 74.0852C176.722 74.7371 177.258 75.2655 177.919 75.2655Z" fill="white"/>
<path d="M107.197 64.1215V64.0658C107.376 63.8334 108.139 62.9133 108.799 62.8854C109.458 62.8575 110.326 63.8148 110.523 64.0658V64.1215H107.197Z" fill="white"/>
<path d="M106.122 62.8857V62.9508C105.453 63.62 102.918 64.1219 99.8924 64.1219C96.867 64.1219 94.2376 63.6478 93.6532 62.9508V62.8857H106.122Z" fill="white"/>
<path d="M124.689 64.1219V64.0568C124.02 63.3876 121.484 62.8857 118.459 62.8857C115.434 62.8857 112.804 63.369 112.22 64.0661V64.1219H124.689Z" fill="white"/>
<path d="M149.221 82.9332C148.492 80.674 148.04 78.337 147.873 75.9718L112.569 68.8246C112.403 68.7843 112.242 68.7283 112.088 68.6573C111.661 68.4773 111.261 68.2395 110.9 67.951C110.798 67.8571 110.717 67.7434 110.662 67.617C110.607 67.4906 110.579 67.3543 110.58 67.2167V65.8969C110.578 65.8271 110.548 65.7609 110.497 65.7123C110.446 65.6638 110.378 65.6367 110.307 65.6367H107.479C107.41 65.639 107.344 65.6672 107.295 65.7155C107.246 65.7638 107.218 65.8286 107.215 65.8969V67.6071C107.215 67.6071 107.149 68.9269 108.912 69.6425L149.221 82.9332Z" fill="white"/>
<path d="M248.181 64.1215C248.181 64.1215 248.181 64.1216 248.181 64.0658C248.001 63.8334 247.238 62.9133 246.569 62.8854C245.9 62.8575 245.042 63.8148 244.844 64.0658V64.1215H248.181Z" fill="white"/>
<path d="M249.283 62.8857V62.9508C249.943 63.62 252.478 64.1219 255.503 64.1219C258.529 64.1219 261.158 63.6478 261.743 62.9508V62.8857H249.283Z" fill="white"/>
<path d="M230.717 64.1219V64.0568C231.376 63.3876 233.911 62.8857 236.937 62.8857C239.962 62.8857 242.592 63.369 243.176 64.0661V64.1219H230.717Z" fill="white"/>
<path d="M206.156 82.9332C206.894 80.6762 207.346 78.3381 207.504 75.9718L242.818 68.8246C242.98 68.7827 243.137 68.7267 243.289 68.6573C243.716 68.4773 244.116 68.2395 244.477 67.951C244.579 67.8571 244.66 67.7434 244.715 67.617C244.77 67.4906 244.798 67.3543 244.797 67.2167V65.8969C244.799 65.8271 244.829 65.7609 244.88 65.7123C244.931 65.6638 244.999 65.6367 245.07 65.6367H247.898C247.968 65.6367 248.035 65.6641 248.084 65.7129C248.134 65.7617 248.162 65.8279 248.162 65.8969V67.6071C248.162 67.6071 248.228 68.9269 246.465 69.6425L206.156 82.9332Z" fill="white"/>
<path d="M177.486 15.5319H185.563H185.883C189.889 15.8851 192.085 17.177 193.065 18.8221C193.193 20.7158 192.715 22.6013 191.698 24.2127C192.518 23.6748 193.177 22.9317 193.61 22.0596C194.042 21.1875 194.231 20.2177 194.158 19.2496C200.878 19.8351 202.084 22.8929 202.471 24.0733C202.513 24.2071 202.601 24.3226 202.719 24.4004C202.838 24.4782 202.979 24.5136 203.121 24.5008C209.162 24.2592 211.528 28.0698 211.528 28.0698C218.003 32.847 220.868 32.5217 220.868 32.5217C225.213 32.7726 248.256 25.3187 251.027 23.8688C251.149 23.8038 251.347 24.0082 251.272 24.1383C249.962 26.4526 249.076 28.1627 249.076 28.1627C256.757 22.1494 284.758 17.7346 286.077 18.1994C286.746 18.4317 283.325 21.3222 283.325 21.3222L308.564 13.0411C308.97 12.9441 309.365 12.807 309.743 12.6322C310.79 12.1922 311.77 11.6103 312.655 10.9035C312.918 10.6701 313.126 10.3828 313.264 10.0616C313.403 9.74051 313.468 9.39338 313.456 9.04465V5.80099C313.456 5.71555 313.473 5.63095 313.506 5.55202C313.539 5.47308 313.588 5.40135 313.649 5.34093C313.71 5.28052 313.783 5.23261 313.863 5.19991C313.943 5.16722 314.029 5.15039 314.116 5.15039H321.033C321.12 5.15039 321.206 5.16722 321.286 5.19991C321.366 5.23261 321.439 5.28052 321.5 5.34093C321.561 5.40135 321.61 5.47308 321.643 5.55202C321.676 5.63095 321.693 5.71555 321.693 5.80099V10.0112C321.693 10.0112 321.853 13.2549 317.509 15.0115L231.979 49.6508L231.829 49.7159C228.638 51.0058 225.564 52.5604 222.64 54.363C222.187 54.6511 211.575 60.9804 206.495 67.4864C204.926 61.0703 201.213 55.3614 195.954 51.2783C190.696 47.1953 184.198 44.9754 177.505 44.9758C170.812 44.977 164.315 47.1975 159.057 51.2803C153.799 55.3631 150.085 61.0711 148.514 67.4864C143.434 60.9804 132.822 54.6511 132.37 54.363C129.442 52.5676 126.368 51.0133 123.181 49.7159L123.03 49.6508L37.5103 15.0301C33.1656 13.2735 33.3258 10.0298 33.3258 10.0298V5.8196C33.3258 5.64705 33.3953 5.48155 33.519 5.35954C33.6427 5.23753 33.8105 5.169 33.9855 5.169H40.9032C41.0782 5.169 41.246 5.23753 41.3697 5.35954C41.4934 5.48155 41.5629 5.64705 41.5629 5.8196V9.06325C41.5507 9.41199 41.6161 9.75911 41.7545 10.0802C41.8929 10.4014 42.101 10.6887 42.3641 10.9221C43.2499 11.6297 44.2297 12.2144 45.2763 12.6601C45.6566 12.8264 46.0508 12.9601 46.4544 13.0597L71.7032 21.3408C71.7032 21.3408 68.2725 18.4596 68.9417 18.218C70.2611 17.7533 98.2619 22.168 105.943 28.1813C105.943 28.1813 105.057 26.4712 103.747 24.157C103.672 24.0268 103.87 23.8317 103.992 23.8874C106.744 25.3373 129.787 32.7912 134.151 32.5403C134.151 32.5403 136.979 32.8656 143.5 28.0977C143.5 28.0977 145.857 24.2778 151.898 24.5194C152.04 24.531 152.183 24.4952 152.302 24.4177C152.422 24.3402 152.512 24.2255 152.558 24.0919C152.935 22.9115 154.141 19.8537 160.861 19.2682C160.788 20.2363 160.977 21.2061 161.409 22.0782C161.842 22.9503 162.501 23.6934 163.321 24.2313C162.304 22.6199 161.826 20.7343 161.954 18.8407C162.896 17.1956 165.13 15.913 169.136 15.5505H169.456H177.533" fill="white"/>
<path d="M321.655 3.05904C321.67 3.05826 321.685 3.05359 321.697 3.04549C321.71 3.03738 321.72 3.02615 321.727 3.01292C321.733 2.9997 321.737 2.98496 321.736 2.97021C321.735 2.95545 321.73 2.94119 321.721 2.92891C321.278 2.35267 319.45 0.0756454 317.763 0.0105862C316.076 -0.054473 313.993 2.32479 313.522 2.92891C313.51 2.93924 313.501 2.95311 313.498 2.96845C313.494 2.98379 313.496 2.99982 313.502 3.01429C313.508 3.02875 313.519 3.04091 313.533 3.04895C313.547 3.05699 313.563 3.06052 313.578 3.05904H321.655Z" fill="white"/>
<path d="M324.37 0.0200195C324.353 0.0216157 324.337 0.0276077 324.323 0.0373213C324.31 0.0470348 324.299 0.0601147 324.292 0.0752717C324.286 0.0904288 324.283 0.107118 324.285 0.123546C324.287 0.139975 324.294 0.155581 324.304 0.168758C325.934 1.82312 332.173 3.05923 339.628 3.05923C347.272 3.05923 353.558 1.87888 354.981 0.168758C354.992 0.15495 354.998 0.138525 355 0.121334C355.001 0.104143 354.998 0.0868524 354.99 0.0714143C354.982 0.0559761 354.97 0.042992 354.955 0.0339177C354.94 0.0248433 354.923 0.0200195 354.906 0.0200195H324.37Z" fill="white"/>
<path d="M278.669 3.05923C278.65 3.06094 278.631 3.05679 278.614 3.04731C278.597 3.03784 278.584 3.02349 278.576 3.00624C278.567 2.989 278.565 2.96966 278.568 2.95088C278.571 2.93209 278.58 2.91478 278.594 2.90124C280.224 1.24688 286.473 0.0200195 293.919 0.0200195C301.562 0.0200195 307.858 1.20042 309.281 2.91055C309.292 2.92498 309.299 2.94231 309.3 2.96041C309.301 2.9785 309.297 2.99656 309.288 3.01237C309.279 3.02818 309.265 3.04103 309.249 3.04936C309.233 3.05769 309.214 3.06112 309.196 3.05923H278.669Z" fill="white"/>
<path d="M29.9989 131.653H48.5561V149.526H28.6511C18.5949 149.526 11.1777 143.243 11.1777 134.943C11.1777 126.644 18.5949 120.918 28.6511 120.918H49.3854L43.5704 128.354H28.6134C23.7597 128.354 20.0746 131.263 20.0746 135.324C20.0746 139.386 23.6278 142.165 28.6134 142.165H39.5838V138.02H24.5797L29.9989 131.653Z" fill="white"/>
<path d="M87.4047 142.174L81.6368 149.526H53.7208V120.918H87.3198L81.5142 128.354H62.7308V131.774H85.7177L80.5529 138.28H62.7308V142.174H87.4047Z" fill="white"/>
<path d="M131.965 135.204C131.965 145.427 124.858 150 110.759 150C96.6597 150 89.5629 145.418 89.5629 135.204C89.5629 124.989 96.6315 120.454 110.759 120.454C124.887 120.454 131.965 124.98 131.965 135.204ZM123.03 135.204C123.03 129.041 119.778 127.889 110.778 127.889C101.777 127.889 98.5258 129.041 98.5258 135.204C98.5258 141.366 101.777 142.555 110.778 142.555C119.778 142.555 123.03 141.356 123.03 135.204Z" fill="white"/>
<path d="M155.941 149.526H136.517V131.7H145.527V142.174H155.941C160.927 142.174 164.527 139.432 164.527 135.334C164.527 131.235 160.757 128.363 155.941 128.363H136.517L142.238 120.928H155.941C166.082 120.928 173.414 126.699 173.414 134.953C173.414 143.206 165.997 149.526 155.941 149.526Z" fill="white"/>
<path d="M219.105 149.526H207.098L200.633 141.96H186.845V149.526H177.882V134.925H203.112C205.939 134.925 208.06 133.679 208.06 131.718C208.06 129.488 206.175 128.382 203.112 128.382H177.882L183.734 120.946H202.386C208.983 120.946 217.305 123 217.305 131.17C217.364 133.322 216.634 135.423 215.249 137.087C213.864 138.752 211.917 139.868 209.765 140.232C211.218 141.382 212.579 142.64 213.837 143.996L219.105 149.526Z" fill="white"/>
<path d="M262.76 135.204C262.76 145.427 255.654 150 241.564 150C227.474 150 220.359 145.418 220.359 135.204C220.359 124.989 227.427 120.454 241.564 120.454C255.701 120.454 262.76 124.98 262.76 135.204ZM253.835 135.204C253.835 129.041 250.584 127.889 241.583 127.889C232.583 127.889 229.331 129.041 229.331 135.204C229.331 141.366 232.583 142.555 241.583 142.555C250.584 142.555 253.835 141.356 253.835 135.204Z" fill="white"/>
<path d="M293.108 148.457L275.333 132.722V149.526H267.181V125.798C267.181 121.987 269.518 120.454 272.082 120.454C272.756 120.453 273.423 120.589 274.043 120.853C274.662 121.117 275.22 121.503 275.682 121.987L293.457 137.713V120.918H301.647V144.609C301.647 148.411 299.309 150 296.708 150C296.032 150.006 295.362 149.872 294.742 149.606C294.122 149.34 293.565 148.949 293.108 148.457Z" fill="white"/>
<path d="M340.627 142.174L334.859 149.526H306.934V120.918H340.533L334.727 128.354H315.953V131.774H338.931L333.776 138.28H315.953V142.174H340.627Z" fill="white"/>
</g>
<defs>
<clipPath id="clip0_172_107">
<rect width="355" height="150" fill="white"/>
</clipPath>
</defs>
</svg>
