<svg width="56" height="39" viewBox="0 0 56 39" fill="none" xmlns="http://www.w3.org/2000/svg">
<path d="M8.93438 16.75C5.84063 16.75 3.43438 14.3438 3.43438 11.25C3.43438 8.24219 5.84063 5.75 8.93438 5.75C11.9422 5.75 14.4344 8.24219 14.4344 11.25C14.4344 14.3438 11.9422 16.75 8.93438 16.75ZM47.4344 16.75C44.3406 16.75 41.9344 14.3438 41.9344 11.25C41.9344 8.24219 44.3406 5.75 47.4344 5.75C50.4422 5.75 52.9344 8.24219 52.9344 11.25C52.9344 14.3438 50.4422 16.75 47.4344 16.75ZM50.1844 19.5C53.1922 19.5 55.6844 21.9922 55.6844 25V27.75C55.6844 29.2969 54.3953 30.5 52.9344 30.5H47.2625C46.6609 26.4609 44.2547 23.0234 40.7313 21.1328C41.7625 20.1875 43.1375 19.5 44.6844 19.5H50.1844ZM28.1844 19.5C22.8563 19.5 18.5594 15.2031 18.5594 9.875C18.5594 4.63281 22.8563 0.25 28.1844 0.25C33.4266 0.25 37.8094 4.63281 37.8094 9.875C37.8094 15.2031 33.4266 19.5 28.1844 19.5ZM34.7156 22.25C40.2156 22.25 44.6844 26.7188 44.6844 32.2188V34.625C44.6844 36.9453 42.7938 38.75 40.5594 38.75H15.8094C13.4891 38.75 11.6844 36.9453 11.6844 34.625V32.2188C11.6844 26.7188 16.0672 22.25 21.5672 22.25H22.2547C24.0594 23.1094 26.0359 23.625 28.1844 23.625C30.2469 23.625 32.2234 23.1094 34.0281 22.25H34.7156ZM15.5516 21.1328C12.0281 23.0234 9.62188 26.4609 9.02031 30.5H3.43438C1.8875 30.5 0.684376 29.2969 0.684376 27.75V25C0.684376 21.9922 3.09063 19.5 6.18438 19.5H11.6844C13.1453 19.5 14.5203 20.1875 15.5516 21.1328Z" fill="#0E2A52"/>
</svg>
