<svg width="45" height="39" viewBox="0 0 45 39" fill="none" xmlns="http://www.w3.org/2000/svg">
<path d="M44.1672 9.875V34.625C44.1672 36.9453 42.2766 38.75 40.0422 38.75H4.29219C1.97188 38.75 0.167189 36.9453 0.167189 34.625V9.875C0.167189 7.64062 1.97188 5.75 4.29219 5.75H11.8547L12.8859 3C13.4875 1.36719 15.0344 0.25 16.7531 0.25H27.4953C29.2141 0.25 30.7609 1.36719 31.3625 3L32.4797 5.75H40.0422C42.2766 5.75 44.1672 7.64062 44.1672 9.875ZM32.4797 22.25C32.4797 16.5781 27.8391 11.9375 22.1672 11.9375C16.4094 11.9375 11.8547 16.5781 11.8547 22.25C11.8547 28.0078 16.4094 32.5625 22.1672 32.5625C27.8391 32.5625 32.4797 28.0078 32.4797 22.25ZM29.7297 22.25C29.7297 26.4609 26.2922 29.8125 22.1672 29.8125C17.9563 29.8125 14.6047 26.4609 14.6047 22.25C14.6047 18.125 17.9563 14.6875 22.1672 14.6875C26.2922 14.6875 29.7297 18.125 29.7297 22.25Z" fill="#0E2A52"/>
</svg>
