<svg width="50" height="50" viewBox="0 0 50 50" fill="none" xmlns="http://www.w3.org/2000/svg">
<circle cx="25" cy="25" r="25" fill="#F9C75E"/>
<path d="M38.125 25C38.1258 25.3183 38.0442 25.6314 37.8881 25.9088C37.732 26.1862 37.5068 26.4186 37.2344 26.5832L20.35 36.9121C20.0653 37.0864 19.7393 37.1816 19.4056 37.1877C19.0718 37.1939 18.7425 37.1109 18.4516 36.9472C18.1634 36.7861 17.9234 36.5512 17.7561 36.2665C17.5889 35.9819 17.5005 35.6578 17.5 35.3277V14.6722C17.5005 14.3421 17.5889 14.0181 17.7561 13.7334C17.9234 13.4488 18.1634 13.2138 18.4516 13.0527C18.7425 12.8891 19.0718 12.806 19.4056 12.8122C19.7393 12.8184 20.0653 12.9136 20.35 13.0879L37.2344 23.4168C37.5068 23.5814 37.732 23.8137 37.8881 24.0911C38.0442 24.3686 38.1258 24.6817 38.125 25Z" fill="#0E2A52"/>
</svg>
