<svg width="31" height="45" viewBox="0 0 31 45" fill="none" xmlns="http://www.w3.org/2000/svg">
<path d="M15.1964 30.75C10.5558 30.75 6.94641 27.1406 6.94641 22.5V8.75C6.94641 4.19531 10.5558 0.5 15.1964 0.5C19.7511 0.5 23.4464 4.19531 23.4464 8.75V22.5C23.4464 27.1406 19.7511 30.75 15.1964 30.75ZM28.9464 17C29.6339 17 30.3214 17.6875 30.3214 18.375V22.5C30.3214 30.1484 24.5636 36.5078 17.2589 37.5391V40.375H22.0714C22.7589 40.375 23.4464 41.0625 23.4464 41.75V43.125C23.4464 43.8984 22.7589 44.5 22.0714 44.5H8.32141C7.54797 44.5 6.94641 43.8984 6.94641 43.125V41.75C6.94641 41.0625 7.54797 40.375 8.32141 40.375H13.1339V37.4531C5.48547 36.4219 0.0714111 29.5469 0.0714111 21.8984V18.375C0.0714111 17.6875 0.672974 17 1.44641 17H2.82141C3.50891 17 4.19641 17.6875 4.19641 18.375V22.0703C4.19641 27.8281 8.32141 32.8984 14.0792 33.5C20.6105 34.1016 26.1964 28.9453 26.1964 22.5V18.375C26.1964 17.6875 26.798 17 27.5714 17H28.9464Z" fill="#0E2A52"/>
</svg>
