<svg width="51" height="45" viewBox="0 0 51 45" fill="none" xmlns="http://www.w3.org/2000/svg">
<path d="M45.8008 26.4531C45.543 27.3984 44.6836 28 43.7383 28H18.5586L19.1602 30.75H42.1914C43.4805 30.75 44.5117 32.0391 44.168 33.3281L43.7383 35.3906C45.3711 36.1641 46.4883 37.7969 46.4883 39.6875C46.4883 42.3516 44.2539 44.5 41.6758 44.5C39.0117 44.5 36.8633 42.3516 36.8633 39.6875C36.8633 38.3984 37.3789 37.1953 38.2383 36.25H20.2773C21.1367 37.1953 21.7383 38.3984 21.7383 39.6875C21.7383 42.3516 19.5039 44.5 16.9258 44.5C14.2617 44.5 12.1133 42.3516 12.1133 39.6875C12.1133 37.9688 13.0586 36.4219 14.5195 35.5625L8.41797 6H2.48828C1.28516 6 0.425781 5.14062 0.425781 3.9375V2.5625C0.425781 1.44531 1.28516 0.5 2.48828 0.5H11.2539C12.1992 0.5 13.0586 1.27344 13.3164 2.21875L14.0898 6H47.7773C49.1523 6 50.0977 7.28906 49.8398 8.57812L45.8008 26.4531Z" fill="#0E2A52"/>
</svg>
