<svg width="56" height="45" viewBox="0 0 56 45" fill="none" xmlns="http://www.w3.org/2000/svg">
<path d="M54.3094 36.25C54.9969 36.25 55.6844 36.9375 55.6844 37.625V39C55.6844 42.0938 53.1922 44.5 50.1844 44.5H6.18438C3.09063 44.5 0.684376 42.0938 0.684376 39V37.625C0.684376 36.9375 1.28594 36.25 2.05938 36.25H22.5984C22.5125 37.5391 23.8016 39 25.4344 39H30.5906C32.1375 39 33.3406 37.9688 33.4266 36.25H54.3094ZM50.1844 4.625V33.5H6.18438V4.625C6.18438 2.39062 7.98906 0.5 10.3094 0.5H46.0594C48.2938 0.5 50.1844 2.39062 50.1844 4.625ZM44.6844 28V6H11.6844V28H44.6844Z" fill="#0E2A52"/>
</svg>
