<svg width="384" height="73" viewBox="0 0 384 73" fill="none" xmlns="http://www.w3.org/2000/svg">
<path fill-rule="evenodd" clip-rule="evenodd" d="M89.6647 9.43615L92.1265 4.47852C93.3331 2.08118 91.5713 -0.176983 88.5727 0.791466L77.6157 4.32994L70.4539 10.7115L62.7973 9.00946L77.121 4.27231L71.7994 3.15528C70.6441 2.95692 69.4413 3.0285 68.3361 3.36138C62.8516 4.86207 4.32004 23.5802 4.98369 24.2323C5.32755 24.5822 9.35803 23.6713 11.9103 25.5029C7.78785 26.5308 3.79939 27.8715 0 29.5063C8.3927 29.4248 10.8603 29.8467 17.6541 32.5892C14.0714 33.4671 10.5911 34.59 7.25237 35.9454C11.2816 36.1664 15.196 37.1071 18.7041 38.6975C18.9996 45.4099 18.8911 53.2683 17.775 60.0286L86.2135 6.00797C88.0839 4.53604 89.3087 4.61282 89.369 6.00797L89.5199 9.46016C89.5199 9.6375 89.5983 9.58959 89.6647 9.46016M49.5355 36.6358L24.3816 56.9985L23.0301 61.793L41.4687 72.5617L83.5165 45.29L78.563 39.6612L66.0131 41.7613L74.1765 44.3407L46.6937 55.9052L42.615 53.7957L49.5355 36.6358ZM347.31 27.5262L376.403 27.5597C379.281 27.5597 380.832 24.683 383.505 24.2946C383.716 24.2658 384.012 24.0501 384 23.9445H343.038C332.781 23.9445 332.081 25.8145 326.385 37.4653C325.106 40.0879 322.439 44.0147 326.264 46.0955C329.631 47.9367 349.337 45.7072 354.441 47.136C354.701 49.7778 351.425 55.958 349.011 57.871L346.465 58.3985H318.107C314.029 58.3985 315.09 60.6664 310.74 61.5917C310.635 61.6251 310.543 61.6815 310.476 61.7544C310.408 61.8273 310.368 61.9138 310.36 62.004H353.741C358.719 62.004 362.424 60.1293 363.92 57.1758L368.355 48.4306C369.362 46.4503 367.975 42.9456 362.725 42.9647L339.937 43.0414C337.891 43.0414 338.012 41.4496 338.585 40.3133L344.1 29.4008C344.36 28.8775 344.797 28.422 345.364 28.085C345.931 27.7481 346.605 27.5429 347.31 27.4925V27.5262ZM210.076 29.9235C211.09 27.8569 211.591 23.6904 203.723 23.6904H173.718C166.134 23.6904 163.727 26.5672 162.405 29.2617L149.325 56.0012C147.81 59.0937 148.546 62.2101 154.942 62.2101H182.925C192.923 62.2101 195.723 59.1465 198.045 54.4141L210.076 29.9235ZM163.775 55.3347L176.638 29.631C177.543 27.8233 178.865 27.5501 181.308 27.5501H193.569C196.235 27.5501 196.634 28.1494 195.982 29.5111L182.756 56.193C182.045 57.6314 181.387 58.3217 178.696 58.3217H165.144C163.123 58.3217 162.719 57.4013 163.775 55.3012V55.3347ZM117.588 61.9656H136.232C138.259 61.9656 139.049 60.7047 139.592 59.5923L156.299 25.6227C156.643 24.8075 156.661 23.9301 153.771 23.9301H132.974C128.424 23.8343 127.254 24.6734 126.035 25.4357L76.8857 58.2547C75.0756 59.4629 72.0045 61.2801 70.496 61.7211C70.291 61.7834 70.1884 61.8409 70.1763 61.956H83.3355C85.4292 61.956 87.1788 61.0403 89.8337 59.2615L105.865 48.5025C108.2 46.9346 109.787 46.7523 111.639 46.7716H128.798C129.77 46.7716 131.737 47.4908 130.795 49.1305L126.741 56.1594C125.474 58.3601 121.311 60.3595 118.927 61.2417C118.3 61.4862 117.606 61.7978 117.588 61.9656ZM115.205 41.2914L133.975 28.8014C136.358 27.2193 140.902 26.1021 138.959 29.8995L133.529 40.5147C132.401 42.5331 132.002 42.7681 130.011 42.7634L115.651 42.7346C114.137 42.7297 114.034 42.0873 115.205 41.2914H115.205ZM267.021 23.93C267.021 24.2082 267.178 24.3471 267.516 24.4095C269.67 24.8266 276.361 28.7246 275.462 30.5418L263.299 55.047C260.107 61.3949 265.959 61.9655 267.625 61.9608H299.789C304.423 61.9608 308.46 60.6806 311.108 55.2962L325.088 26.8596C326.15 24.702 327.013 23.9253 323.212 23.9253H300.707C300.679 24.0284 300.695 24.1358 300.751 24.2311C300.808 24.3264 300.902 24.4043 301.02 24.4527C304.194 25.3541 309.467 28.3171 309.081 30.9158L296.411 56.4421C295.717 57.8326 294.51 58.36 292.73 58.3265H278.431C276.621 58.3265 276.729 56.9696 277.224 55.8812L291.813 25.8384C292.531 24.3568 292.513 23.9206 289.882 23.9206L267.021 23.93ZM249.56 27.2479C250.924 27.2479 251.817 28.1062 251.328 29.0986L245.144 41.7036C244.54 42.8974 243.768 42.9215 242.042 42.9262L228.962 42.955C226.041 42.955 225.528 42.1687 226.343 40.5913L229.963 33.6007C230.44 32.6803 230.566 31.5343 228.636 31.5343H218.729C217.305 31.6589 216.575 31.8507 215.712 33.6296L202.716 59.4963C201.768 61.371 203.138 61.9655 204.302 61.9655H213.262C215.29 61.9655 216.02 61.9655 217.269 59.3333L222.15 49.0105C223.555 46.0379 227.025 45.7838 228.509 48.7037L234.277 60.062C234.971 61.4238 235.104 61.9799 236.896 61.9799H261.253C261.251 61.9033 261.219 61.8291 261.162 61.7674C261.104 61.7056 261.025 61.6593 260.933 61.6347C260.394 61.4996 259.874 61.3196 259.383 61.0977L255.907 59.0408C254.453 58.3649 254.254 58.2833 252.933 58.2833H249.554C247.774 58.2833 247.382 57.5593 246.664 56.212L242.724 48.8091C241.849 47.1646 242.314 46.8098 244.715 46.8098H249.651C254.568 46.8098 258.14 44.8488 259.992 40.9365L265.736 29.4294C266.822 27.2479 265.736 23.9157 260.384 23.9157H213.492C215.459 24.7886 217.231 25.9146 218.735 27.2479H249.56Z" fill="white"/>
</svg>
