<svg width="323" height="65" viewBox="0 0 323 65" fill="none" xmlns="http://www.w3.org/2000/svg">
<path d="M308.663 8.16683C308.663 4.50454 311.601 1.50267 315.198 1.50267C316.936 1.50267 318.555 2.22312 319.814 3.42387C321.073 4.68466 321.733 6.36571 321.733 8.1068C321.733 9.84788 321.073 11.5289 319.814 12.7897C318.555 14.0505 316.936 14.771 315.198 14.771C311.601 14.771 308.663 11.8291 308.663 8.16683ZM308.124 8.16683C308.124 12.1293 311.301 15.3713 315.258 15.3713C317.176 15.3713 318.915 14.6509 320.234 13.27C321.553 11.8892 322.332 10.088 322.332 8.16683C322.332 6.24563 321.613 4.44451 320.234 3.06364C318.855 1.68278 317.116 0.96233 315.258 0.96233C311.301 0.96233 308.124 4.20436 308.124 8.16683ZM312.56 12.4295H313.579V9.0674H315.857C316.217 9.0674 316.517 9.0674 316.757 9.18747C317.056 9.36758 317.236 9.72781 317.296 10.2081L317.416 11.5289V12.1293C317.476 12.2494 317.476 12.3094 317.536 12.3695H318.795V12.1893C318.615 12.1293 318.555 11.9492 318.495 11.709C318.435 11.589 318.435 11.3488 318.435 11.0486L318.375 10.028C318.375 9.5477 318.255 9.24751 318.135 9.0674C317.956 8.88728 317.716 8.70717 317.416 8.5871C317.776 8.40698 318.016 8.16683 318.195 7.86665C318.375 7.56646 318.435 7.20623 318.435 6.72593C318.435 5.82537 318.076 5.22499 317.416 4.86477C317.056 4.68466 316.577 4.62462 316.037 4.62462H312.62L312.56 12.4295ZM313.519 8.16683V5.46514H315.917C316.277 5.46514 316.577 5.52518 316.757 5.64526C317.116 5.82537 317.296 6.24563 317.296 6.78597C317.296 7.32631 317.176 7.68653 316.876 7.86665C316.637 8.04676 316.277 8.16683 315.797 8.16683H313.519ZM29.4686 18.073L0.332092 63.9417H20.236L48.2934 20.1143L29.4686 18.073ZM149.432 17.0524V0.0617676H92.7775C85.0437 0.542068 81.6864 4.26439 79.1684 6.90604C76.4706 9.72781 74.9718 15.6715 74.9718 15.6715V0.181843H44.8162C42.538 0.181843 40.3798 1.14244 38.7611 3.42387C37.0824 5.64526 30.188 17.0524 30.188 17.0524H149.432ZM303.507 17.0524V0.0617676H242.896C235.222 0.542068 231.805 4.26439 229.287 6.90604C226.589 9.72781 225.091 15.6715 225.091 15.6715V17.0524H303.507ZM169.336 0.121805H152.369V17.0524H169.336V0.121805ZM224.911 0.121805H208.004V17.0524H224.911V0.121805ZM224.911 23.1762L208.244 22.1556V41.7878C208.244 41.7878 208.184 47.4314 202.729 47.4314H174.192C174.192 47.4314 169.336 47.0111 169.336 41.8479V19.5139L152.549 18.3132V48.392C155.247 62.801 168.257 63.9417 168.257 63.9417C168.257 63.9417 169.575 64.0017 169.815 64.0618H208.484C208.484 64.0618 225.031 62.7409 225.031 46.771L224.911 23.1762ZM57.7058 63.9417H136.962C150.751 61.18 152.189 48.5721 152.189 48.5721C152.849 44.8498 152.489 41.7878 152.489 41.7878C152.07 39.2663 147.273 28.0993 136.962 27.1387C130.787 26.5383 75.8111 22.1556 75.8111 22.1556C76.8903 27.679 79.3483 30.5008 81.0269 32.0618C84.8638 35.7241 90.919 36.8047 90.919 36.8047L133.305 40.3469C134.624 40.407 137.082 40.7672 137.022 44.0092C137.022 44.4295 136.662 47.2513 133.545 47.2513H74.2524V22.0355L57.7657 20.8347C57.7058 20.8347 57.7058 63.9417 57.7058 63.9417ZM225.031 64.0618H285.702C300.929 63.1612 303.088 48.6922 303.088 48.6922C303.627 44.9098 303.208 41.7878 303.208 41.7878C302.788 38.3657 297.932 28.0393 287.56 27.0186C281.445 26.4182 226.11 23.1762 226.11 23.1762C227.728 28.8798 229.947 30.6209 231.625 32.1818C235.462 35.9042 241.158 36.7447 241.158 36.7447C242.596 36.8648 283.963 40.3469 283.963 40.3469C285.282 40.407 287.98 40.5271 287.98 43.7691C287.98 44.7297 287.5 45.7503 286.901 46.2907C286.901 46.2907 285.462 47.0711 284.083 47.0711H225.211L225.031 64.0618Z" fill="white"/>
</svg>
