<svg width="339" height="50" viewBox="0 0 339 50" fill="none" xmlns="http://www.w3.org/2000/svg">
<path d="M0.332092 37.1855H11.3278C15.1968 37.1855 18.263 36.3123 20.5264 34.5538C22.7929 32.8014 23.9292 30.4377 23.9292 27.4689C23.9292 22.5127 21.0328 19.4233 15.2493 18.2009C18.8497 16.2949 20.6499 13.5789 20.6499 10.05C20.6499 7.09616 19.5908 4.78067 17.4787 3.10353C15.3667 1.42638 12.2572 0.586304 8.15352 0.586304H0.332092V37.1855ZM7.14381 2.92889C14.0513 2.92889 17.5034 5.37084 17.5034 10.2487C17.5034 15.1115 14.0883 17.5445 7.25188 17.5445H3.2192V2.92889H7.14381ZM9.7314 19.9292C17.1298 19.9292 20.8228 22.4284 20.8228 27.4267C20.8228 29.682 19.9922 31.4796 18.3186 32.8255C16.6481 34.1744 14.2087 34.8459 10.9943 34.8459H3.2192V19.9292H9.7314ZM27.6315 0.586304H30.2932V37.1855H27.6315V0.586304ZM52.3494 35.1801C51.9573 35.1801 51.7596 34.7706 51.7596 33.9486V18.9024C51.7596 16.8549 51.0371 15.2922 49.5827 14.2143C48.1345 13.1393 46.2911 12.6003 44.0525 12.6003C41.5297 12.6003 38.868 13.4525 36.0735 15.1597V17.8004C38.7754 15.7529 41.292 14.7291 43.6171 14.7291C47.2669 14.7291 49.0918 16.3762 49.0918 19.6703V22.7385C44.4786 22.9704 40.9276 23.8405 38.445 25.3551C35.9593 26.8727 34.718 28.9443 34.718 31.5699C34.718 33.2741 35.3633 34.7164 36.6479 35.9088C37.9386 37.1012 39.5103 37.6943 41.3661 37.6943C43.9228 37.6943 46.5011 36.6977 49.0918 34.7044C49.1998 35.9118 49.3697 36.7127 49.6013 37.1042C49.8359 37.4956 50.2621 37.6943 50.8673 37.6943C51.9233 37.6943 53.5907 36.8633 55.8633 35.1922V33.0513C54.023 34.4725 52.8527 35.1801 52.3494 35.1801ZM49.0949 32.4491C46.7697 34.5267 44.4817 35.5655 42.2245 35.5655C40.8288 35.5655 39.6678 35.1771 38.7352 34.4063C37.8058 33.6354 37.3426 32.684 37.3426 31.5639C37.3426 29.5585 38.4543 27.9145 40.6806 26.6227C42.9069 25.334 45.7137 24.7469 49.0949 24.8703V32.4491ZM69.1471 12.6003C65.6579 12.6003 62.7831 13.8048 60.5383 16.2106C58.2965 18.6194 57.1695 21.7178 57.1695 25.5177C57.1695 29.158 58.2842 32.0968 60.5136 34.337C62.7368 36.5772 65.6579 37.6973 69.2675 37.6973C71.3827 37.6973 73.6677 37.2878 76.1379 36.4598V33.777C73.8128 34.7134 71.5958 35.1801 69.4868 35.1801C66.5904 35.1801 64.2776 34.2828 62.5577 32.4913C60.8347 30.6967 59.9701 28.2758 59.9701 25.2286C59.9701 22.2326 60.8347 19.7997 62.5608 17.9269C64.2869 16.051 66.5287 15.1146 69.2861 15.1146C71.1974 15.1146 73.3373 15.6264 75.7026 16.6472V13.7957C73.2477 12.9978 71.0616 12.6003 69.1471 12.6003ZM79.655 0.586304H82.2734V37.1855H79.655V0.586304ZM96.3014 13.0701L82.6687 24.5331L98.2807 37.1855H101.893L86.266 24.521L99.7968 13.0701H96.3014Z" fill="white"/>
<path d="M101.844 13.0703V37.1857H104.469V20.2727C106.565 16.8341 109.048 15.1148 111.92 15.1148C113.896 15.1148 115.464 15.8344 116.647 17.2797C117.823 18.722 118.404 20.7785 118.404 23.4523V37.1857H121.069V20.7454C122.267 18.7762 123.428 17.3429 124.555 16.4517C125.682 15.5604 127.007 15.1148 128.526 15.1148C130.564 15.1148 132.151 15.8615 133.272 17.355C134.399 18.8515 134.964 20.899 134.964 23.5035V37.1857H137.586V22.3774C137.586 19.4236 136.801 17.0569 135.226 15.2743C133.658 13.4888 131.589 12.6005 129.032 12.6005C125.633 12.6005 122.779 14.5306 120.454 18.3878C118.91 14.5306 116.246 12.6005 112.46 12.6005C109.212 12.6005 106.584 14.1723 104.574 17.3158H104.466V13.0703H101.844ZM159.163 35.1803C158.765 35.1803 158.57 34.7708 158.57 33.9488V18.9026C158.57 16.8551 157.845 15.2924 156.393 14.2145C154.942 13.1395 153.105 12.6005 150.863 12.6005C148.34 12.6005 145.679 13.4527 142.887 15.1599V17.8006C145.586 15.7531 148.103 14.7293 150.428 14.7293C154.081 14.7293 155.902 16.3764 155.902 19.6705V22.7387C151.292 22.9706 147.741 23.8407 145.259 25.3553C142.77 26.8729 141.529 28.9445 141.529 31.5701C141.529 33.2743 142.174 34.7166 143.462 35.909C144.749 37.1014 146.321 37.6945 148.18 37.6945C150.737 37.6945 153.309 36.6979 155.902 34.7046C156.01 35.912 156.177 36.7129 156.412 37.1044C156.647 37.4958 157.07 37.6945 157.675 37.6945C158.734 37.6945 160.398 36.8635 162.674 35.1924V33.0515C160.837 34.4727 159.663 35.1803 159.163 35.1803ZM155.902 32.4493C153.577 34.5269 151.286 35.5657 149.032 35.5657C147.636 35.5657 146.472 35.1773 145.543 34.4065C144.613 33.6357 144.147 32.6842 144.147 31.5641C144.147 29.5587 145.262 27.9147 147.488 26.6229C149.714 25.3342 152.521 24.7471 155.902 24.8705V32.4493ZM184.604 13.0703H174.695C171.314 13.0703 168.72 13.8712 166.914 15.4671C165.104 17.0659 164.199 19.1345 164.199 21.6728C164.199 23.4523 164.758 25.0723 165.882 26.5326C167 27.993 168.643 29.0378 170.813 29.6671V29.7725C167.513 30.6999 165.861 32.0127 165.861 33.7049C165.861 35.3821 167.201 36.5293 169.875 37.1405V37.2459C165.073 37.9956 162.674 39.9438 162.674 43.0903C162.674 45.0354 163.61 46.5922 165.484 47.7725C167.361 48.9528 170.023 49.54 173.475 49.54C176.943 49.54 179.651 48.9197 181.599 47.6671C183.545 46.4175 184.52 44.7042 184.52 42.5182C184.52 40.6694 183.912 39.185 182.695 38.0649C181.482 36.9508 179.132 36.2944 175.64 36.1017C172.147 35.909 170.066 35.6019 169.399 35.1803C168.726 34.7588 168.393 34.2017 168.393 33.4971C168.393 32.904 168.652 32.377 169.174 31.9224C169.693 31.4647 170.974 30.9799 173.015 30.465C175.056 29.9471 176.69 29.4202 177.919 28.8872C179.147 28.3543 180.204 27.5022 181.09 26.3279C181.976 25.1566 182.417 23.5667 182.417 21.5554C182.417 19.3182 181.284 17.1833 179.009 15.1569H184.604V13.0703ZM181.985 42.735C181.985 44.1351 181.232 45.2673 179.725 46.1254C178.218 46.9836 176.186 47.4111 173.636 47.4111C168.016 47.4111 165.209 45.9237 165.209 42.9458C165.209 39.9649 168.189 38.4774 174.148 38.4774C179.373 38.4774 181.985 39.9016 181.985 42.735ZM179.889 21.6066C179.9 22.4557 179.733 23.2983 179.398 24.0819C179.062 24.8655 178.565 25.5736 177.937 26.1623C176.64 27.4299 175.09 28.0682 173.281 28.0682C172.412 28.0818 171.55 27.9182 170.751 27.5879C169.951 27.2576 169.231 26.7679 168.637 26.1502C168.017 25.5391 167.529 24.8131 167.202 24.0152C166.875 23.2172 166.715 22.3634 166.731 21.5042C166.731 19.7518 167.361 18.2613 168.612 17.0388C169.862 15.8133 171.403 15.2021 173.231 15.2021C175.072 15.2021 176.64 15.8284 177.934 17.081C179.24 18.3306 179.889 19.8391 179.889 21.6066ZM187.614 0.583496H190.279V4.97359H187.614V0.583496ZM187.614 13.0703H190.279V37.1857H187.614V13.0703ZM207.027 12.6005C203.538 12.6005 200.663 13.805 198.419 16.2108C196.171 18.6196 195.05 21.718 195.05 25.5179C195.05 29.1582 196.161 32.097 198.391 34.3372C200.617 36.5774 203.538 37.6975 207.145 37.6975C209.26 37.6975 211.548 37.288 214.015 36.46V33.7772C211.693 34.7136 209.476 35.1803 207.367 35.1803C204.471 35.1803 202.161 34.283 200.435 32.4915C198.709 30.6969 197.85 28.276 197.85 25.2288C197.85 22.2328 198.712 19.7999 200.441 17.9271C202.167 16.0512 204.406 15.1148 207.166 15.1148C209.081 15.1148 211.218 15.6266 213.583 16.6474V13.7959C211.128 12.998 208.942 12.6005 207.027 12.6005Z" fill="white"/>
<path d="M236.365 0.583496V14.5366C233.774 13.2449 231.347 12.5975 229.077 12.5975C225.505 12.5975 222.534 13.7899 220.163 16.1716C217.798 18.5534 216.618 21.5343 216.618 25.1234C216.618 28.6584 217.819 31.6363 220.225 34.0602C222.624 36.4871 225.573 37.6945 229.077 37.6945C231.687 37.6945 234.117 36.9117 236.365 35.3399V37.1827H239.029V0.583496H236.365ZM236.365 32.9853C234.225 34.4516 232.008 35.1833 229.726 35.1833C226.777 35.1833 224.325 34.2138 222.358 32.2717C220.391 30.3265 219.413 27.8906 219.413 24.9669C219.413 22.0943 220.336 19.7337 222.173 17.8909C224.01 16.0422 226.351 15.1178 229.189 15.1178C231.616 15.1178 234.012 15.8675 236.365 17.367V32.9853ZM248.818 32.374C247.864 31.4975 247.108 30.4361 246.599 29.258C246.09 28.0799 245.839 26.8111 245.863 25.533C245.863 25.1114 245.894 24.6899 245.94 24.2773H265.436C265.436 20.6792 264.38 17.8367 262.262 15.7411C260.15 13.6484 257.563 12.5975 254.496 12.5975C251.229 12.5975 248.524 13.7598 246.378 16.0783C244.226 18.3968 243.152 21.3235 243.152 24.8585C243.152 28.5861 244.319 31.6604 246.647 34.0753C248.975 36.4901 251.921 37.6945 255.481 37.6945C258.998 37.6945 262.163 36.6316 264.995 34.5058V31.6002C262.003 33.9879 258.94 35.1803 255.802 35.1803C253.122 35.1833 250.791 34.2499 248.818 32.374ZM249.241 16.9726C250.7 15.7415 252.574 15.0798 254.503 15.1148C258.795 15.1148 261.398 17.4754 262.336 22.1907H246.295C246.777 19.9445 247.756 18.2041 249.241 16.9726ZM276.33 12.6005C274.107 12.6005 272.227 13.2449 270.676 14.5306C269.123 15.8193 268.342 17.3821 268.342 19.2188C268.342 20.5136 268.762 21.6909 269.593 22.7477C270.433 23.8046 272.248 24.8765 275.055 25.9605C277.859 27.0445 279.585 27.9448 280.233 28.6554C280.876 29.363 281.197 30.1398 281.197 30.9769C281.197 32.2054 280.706 33.2141 279.73 34.003C278.745 34.7889 277.494 35.1803 275.966 35.1803C273.699 35.1803 271.103 34.4486 268.175 32.9672V35.4814C270.633 36.9629 273.107 37.6975 275.605 37.6975C277.899 37.6975 279.829 37.0562 281.388 35.7675C282.951 34.4818 283.735 32.901 283.735 31.0311C283.735 29.631 283.303 28.3633 282.441 27.2221C281.58 26.087 279.748 24.9819 276.948 23.916C274.16 22.8531 272.443 21.9739 271.822 21.2844C271.23 20.673 270.896 19.8668 270.886 19.0261C270.886 17.8729 271.396 16.9063 272.415 16.1205C273.437 15.3376 274.691 14.9431 276.176 14.9431C278.18 14.9431 280.44 15.7682 282.944 17.4152V14.648C280.561 13.2871 278.359 12.6005 276.33 12.6005ZM287.891 0.583496H290.556V4.97359H287.891V0.583496ZM287.891 13.0703H290.556V37.1857H287.891V13.0703ZM315.953 13.0703H306.041C302.66 13.0703 300.066 13.8712 298.257 15.4671C296.447 17.0659 295.546 19.1345 295.546 21.6728C295.546 23.4523 296.105 25.0723 297.226 26.5326C298.343 27.993 299.992 29.0378 302.157 29.6671V29.7725C298.856 30.6999 297.207 32.0127 297.207 33.7049C297.207 35.3821 298.544 36.5293 301.221 37.1405V37.2459C296.413 37.9956 294.017 39.9438 294.017 43.0903C294.017 45.0354 294.956 46.5922 296.83 47.7725C298.701 48.9528 301.369 49.54 304.818 49.54C308.283 49.54 310.991 48.9197 312.942 47.6671C314.888 46.4175 315.86 44.7042 315.86 42.5182C315.86 40.6694 315.255 39.185 314.039 38.0649C312.825 36.9508 310.472 36.2944 306.983 36.1017C303.491 35.909 301.413 35.6019 300.743 35.1803C300.066 34.7588 299.736 34.2017 299.736 33.4971C299.736 32.904 300.001 32.377 300.517 31.9224C301.036 31.4647 302.32 30.9799 304.358 30.465C306.399 29.9471 308.036 29.4202 309.262 28.8872C310.491 28.3543 311.547 27.5022 312.433 26.3279C313.319 25.1566 313.764 23.5667 313.764 21.5554C313.764 19.3182 312.628 17.1833 310.355 15.1569H315.95L315.953 13.0703ZM313.332 42.735C313.332 44.1351 312.581 45.2673 311.071 46.1254C309.564 46.9836 307.536 47.4111 304.982 47.4111C299.362 47.4111 296.549 45.9237 296.549 42.9458C296.549 39.9649 299.535 38.4774 305.492 38.4774C310.719 38.4774 313.332 39.9016 313.332 42.735ZM311.232 21.6066C311.243 22.4551 311.076 23.2968 310.741 24.0801C310.407 24.8635 309.912 25.572 309.287 26.1623C308.685 26.7733 307.962 27.2576 307.161 27.5854C306.36 27.9132 305.499 28.0775 304.63 28.0682C303.762 28.082 302.9 27.9184 302.1 27.5881C301.3 27.2578 300.58 26.768 299.986 26.1502C299.366 25.5395 298.878 24.8136 298.55 24.0156C298.223 23.2175 298.063 22.3635 298.081 21.5042C298.081 19.7518 298.705 18.2613 299.958 17.0388C301.209 15.8133 302.75 15.2021 304.578 15.2021C306.418 15.2021 307.987 15.8284 309.283 17.081C310.58 18.3306 311.232 19.8391 311.232 21.6066ZM318.522 13.0703V37.1857H321.144V20.2727C323.262 16.8341 325.958 15.1148 329.234 15.1148C333.717 15.1148 335.959 17.8939 335.959 23.4523V37.1857H338.584V22.4828C338.584 19.3904 337.75 16.9696 336.079 15.2232C334.415 13.4737 332.183 12.6005 329.394 12.6005C326.022 12.6005 323.308 14.1542 321.252 17.2646H321.144V13.0703H318.522Z" fill="#9D9FA2"/>
</svg>
