<svg width="306" height="64" viewBox="0 0 306 64" fill="none" xmlns="http://www.w3.org/2000/svg">
<g clip-path="url(#clip0_107_82)">
<path d="M24.6637 45.3946C29.5458 53.359 38.4996 58.7025 48.4647 58.7025C63.1886 58.7025 71.2939 46.0597 71.2939 46.0597L72.3372 49.4275C65.5205 58.2485 53.3428 63.5623 39.7185 63.5623C24.0323 63.5623 10.5042 56.117 4.27944 45.3801C1.93575 41.336 0.627441 36.8188 0.627441 32.0615C0.627441 14.6642 18.1272 0.561768 39.7179 0.561768C54.973 0.561768 67.2553 7.06316 73.7029 16.4849L48.1062 31.7356L62.7142 9.41748C58.535 6.80225 53.4075 4.35331 48.1062 4.35331C33.1201 4.35331 20.777 16.7962 20.777 31.7065C20.777 36.7024 22.2029 41.3965 24.6637 45.3946ZM93.2008 45.3856C93.1241 45.8944 93.0857 46.4081 93.086 46.9225C93.086 52.5824 97.698 57.1718 103.387 57.1718C109.076 57.1718 113.687 52.583 113.687 46.9225C113.688 46.4062 113.649 45.8906 113.572 45.3801C112.827 40.4547 108.551 36.6738 103.386 36.6738C98.2225 36.6738 93.9459 40.4547 93.2008 45.3856ZM131.423 45.3801L136.543 62.5383H118.584L115.053 50.7891C112.689 57.5592 104.709 62.5383 95.2294 62.5383C83.8874 62.5383 74.6938 55.411 74.6938 46.6174C74.6938 46.2059 74.7141 45.7972 74.7534 45.3801C75.5604 37.1727 84.4191 30.6965 95.2294 30.6965C101.365 30.6965 106.872 32.7826 110.635 36.0899L105.744 19.8174H85.1327C85.1327 19.8174 88.5618 17.771 103.769 12.2656C118.976 6.76082 123.795 19.8174 123.795 19.8174L131.423 45.3801ZM188.84 45.3801V62.5383H170.362V24.8401C170.362 23.508 169.83 22.2304 168.884 21.2885C167.937 20.3465 166.653 19.8174 165.314 19.8174C164.297 19.8171 163.304 20.1224 162.465 20.6932C161.625 21.2641 160.978 22.0739 160.609 23.0165V62.5383H142.474V19.8174H131.897C131.897 19.8174 146.611 10.9482 151.713 10.9482C156.548 10.9482 160.127 14.6446 160.574 19.3532C167.69 15.5342 174.747 10.9482 179.602 10.9482C184.618 10.9482 188.701 14.9256 188.84 19.8845V45.3801ZM217.306 45.3801L219.878 53.8371C219.927 57.4618 222.921 60.3615 226.596 60.3615C230.352 60.3615 233.396 57.3325 233.396 53.5952C233.396 53.3304 233.381 53.0701 233.351 52.8136L231.165 45.3801L223.488 19.2743C223.11 15.8914 220.228 13.2617 216.728 13.2617C213.263 13.2617 209.959 16.4832 209.537 19.8168L217.306 45.3801ZM246.714 45.3834C243.214 55.9412 233.22 63.5623 221.435 63.5623C209.651 63.5623 199.656 55.9417 196.155 45.3801C195.269 42.7032 194.819 39.9025 194.822 37.0842C194.822 22.4606 206.737 10.6067 221.435 10.6067C236.133 10.6067 248.048 22.4606 248.048 37.0842C248.048 39.9827 247.58 42.7732 246.714 45.3834ZM277.309 45.3801V62.5383H259.173V19.8174H249.031C249.031 19.8174 263.31 10.9482 268.412 10.9482C273.248 10.9482 276.827 14.6446 277.275 19.3532C284.391 15.5342 291.446 10.9482 296.301 10.9482C301.319 10.9482 305.402 14.9256 305.54 19.8845V62.5383H287.062V24.8401C287.062 23.508 286.53 22.2304 285.583 21.2885C284.637 20.3465 283.352 19.8174 282.014 19.8174C280.997 19.8171 280.004 20.1224 279.164 20.6932C278.325 21.2641 277.678 22.0739 277.309 23.0165V45.3801Z" fill="white"/>
</g>
<defs>
<clipPath id="clip0_107_82">
<rect width="305" height="63" fill="white" transform="translate(0.58374 0.561768)"/>
</clipPath>
</defs>
</svg>
