<svg width="184" height="123" viewBox="0 0 184 123" fill="none" xmlns="http://www.w3.org/2000/svg">
<path d="M155.887 24.7094H184L170.053 92.8611H141.977L155.887 24.7094ZM119.889 24.7094H147.965L134.347 90.0004C131.061 105.818 121.568 122.562 102.072 122.562H59.9761L66.4383 100.433H85.7885C94.916 100.433 105.102 94.628 107.329 84.1107L119.889 24.7094ZM116.566 0.561768H87.6505L74.1784 65.979C72.864 72.3314 71.0386 75.9914 64.4668 75.9914H39.8957C34.3097 75.9914 34.4557 72.2052 35.624 66.7363L39.421 48.6466C40.3703 44.1452 41.6481 42.1259 46.8325 42.1259H71.0386L74.653 24.6673H27.6284C16.4929 24.6673 9.77504 30.8514 7.14633 43.5983L0.793622 74.1825C-1.83509 86.9714 2.25402 92.8611 10.2862 92.8611H78.9977C93.4191 92.8611 99.0051 86.3825 101.524 74.0562L116.566 0.561768Z" fill="white"/>
</svg>
