<svg width="245" height="59" viewBox="0 0 245 59" fill="none" xmlns="http://www.w3.org/2000/svg">
<path d="M222.756 58.4105L239.519 14.8376C239.519 14.8376 226.953 14.8376 214.375 17.2673L198.575 58.4105H222.756ZM219.856 3.1534L216.634 11.5008C229.2 9.07111 241.778 9.07111 241.778 9.07111L245 0.723688C245 0.723688 232.422 0.723688 219.856 3.1534ZM132.487 48.0869C140.066 49.4584 147.793 50.0631 155.693 50.0631C163.914 50.0631 169.716 48.3893 170.358 43.0763C170.679 40.6466 168.099 38.8216 163.593 36.3919C158.434 33.6598 153.928 32.2884 149.41 29.4051C144.893 26.5219 142.966 22.116 144.411 17.2565C146.188 11.6412 150.373 8.45558 156.656 5.42114C164.075 1.93315 169.876 0.561707 184.22 0.561707C193.244 0.561707 201.946 1.31762 210.488 2.99142L207.427 10.8853C199.848 9.51386 192.12 8.90913 184.22 8.90913C175.999 8.90913 170.197 10.5829 169.555 15.8959C169.234 18.3256 171.814 20.1506 176.32 22.5803C181.48 25.3124 185.986 26.6838 190.503 29.5671C195.021 32.4504 196.947 36.8563 195.502 41.7157C193.725 47.331 189.54 50.5167 183.257 53.5511C175.839 57.0391 170.037 58.4105 155.693 58.4105C146.67 58.4105 137.967 57.6546 129.425 55.9808L132.487 48.0869ZM96.06 58.4105L110.083 22.1268C114.761 9.9782 97.6767 14.3841 93.8012 17.2673C90.7399 19.3947 85.2593 24.4053 83.3216 29.7183L72.1998 58.5617H48.03L62.0526 22.1268C66.7306 9.9782 49.6467 14.3841 45.7712 17.2673C42.7099 19.3947 37.2293 24.4053 35.2916 29.7183L24.1698 58.5617H0L22.2435 0.723688C29.9829 0.723688 34.1679 2.39749 37.5503 5.58312C38.8345 6.79258 39.6485 8.3152 40.1301 9.989C44.6476 7.4081 48.6721 5.43194 51.4124 4.52484C56.4115 2.69986 62.6947 0.723688 70.4341 0.723688C78.1734 0.723688 82.3584 2.39749 85.7408 5.58312C87.025 6.79258 87.8391 8.3152 88.3206 9.989C92.8381 7.4081 96.8626 5.43194 99.6029 4.52484C104.602 2.69986 110.885 0.734486 118.625 0.734486C126.364 0.734486 130.549 2.40829 133.931 5.59392C137.474 8.77954 137.314 14.6973 136.03 18.0449L120.23 58.4213H96.06V58.4105Z" fill="white"/>
</svg>
