<svg width="303" height="180" viewBox="0 0 303 180" fill="none" xmlns="http://www.w3.org/2000/svg">
<path opacity="0.995" fill-rule="evenodd" clip-rule="evenodd" d="M115.874 48.0852C123.558 47.7362 130.817 49.4902 137.652 53.3474C139.391 54.3983 141.048 55.5723 142.623 56.8694C142.98 56.5088 143.347 56.1635 143.728 55.8336C145.951 53.4169 148.146 51.0828 150.316 48.831C152.394 51.0132 154.472 53.1955 156.55 55.3778C156.589 55.4647 156.576 55.5476 156.511 55.6264C156.321 55.8289 156.151 56.0498 155.998 56.2893C153.678 58.7711 151.35 61.2433 149.014 63.7062C152.375 68.1463 154.768 73.1047 156.195 78.5815C158.753 89.4085 157.609 99.7391 152.762 109.575C146.792 120.575 137.915 127.398 126.132 130.044C125.354 130.216 124.579 130.381 123.804 130.541C123.672 130.514 123.541 130.486 123.409 130.458C122.777 130.557 122.145 130.667 121.516 130.79C121.459 130.743 121.393 130.716 121.318 130.707C120.463 130.784 119.608 130.867 118.754 130.956C117.829 130.849 116.908 130.849 115.992 130.956C114.844 130.791 113.687 130.625 112.52 130.458C112.389 130.486 112.258 130.514 112.126 130.541C110.633 130.239 109.199 129.949 107.825 129.671C107.383 129.447 106.922 129.268 106.445 129.132C105.062 128.794 103.668 128.269 102.262 127.558C102.23 127.596 102.191 127.623 102.144 127.641C101.024 127.023 99.9458 126.485 98.909 126.025C97.8832 125.32 96.8306 124.657 95.7527 124.036C95.2367 123.577 94.6977 123.148 94.1351 122.751C94.1028 122.789 94.0633 122.817 94.0168 122.834C93.885 122.586 93.7012 122.393 93.4644 122.254C90.8889 124.876 88.3639 127.555 85.8894 130.293C83.9199 128.266 81.9607 126.221 80.0109 124.16C79.8665 123.967 79.7213 123.773 79.5769 123.58C82.0735 120.958 84.5457 118.306 86.9941 115.625C79.5596 105.592 76.9162 94.1288 79.0641 81.2333C81.5243 68.9077 87.9552 59.571 98.3566 53.2231C103.877 50.1314 109.716 48.4188 115.874 48.0852ZM117.768 58.444C122.16 58.43 125.737 60.3083 128.499 64.0792C129.048 64.952 129.574 65.7946 130.077 66.6067C130.051 66.6343 130.024 66.662 129.998 66.6896C130.425 67.4624 130.819 68.2497 131.182 69.0514C121.527 79.2042 111.888 89.3695 102.262 99.5477C102.053 98.2101 101.881 96.8701 101.75 95.5285C101.776 95.2243 101.802 94.921 101.829 94.6169C101.776 94.5614 101.724 94.5067 101.671 94.4511C101.566 91.0535 101.566 87.6558 101.671 84.2581C101.724 84.1752 101.776 84.0924 101.829 84.0095C101.802 83.7609 101.776 83.5123 101.75 83.2636C102.078 79.8548 102.617 76.5262 103.367 73.2778C103.715 72.1186 104.097 70.9722 104.511 69.8386C104.844 68.7231 105.318 67.6458 105.932 66.6067C108.392 61.4381 112.337 58.7172 117.768 58.444ZM133.549 79.7417C133.606 79.7763 133.645 79.8315 133.667 79.9074C133.914 81.549 134.033 83.1924 134.022 84.8382C134.304 89.1234 134.238 93.4186 133.825 97.7245C133.6 99.9264 133.219 102.095 132.681 104.23C132.707 104.313 132.734 104.396 132.76 104.478C132.014 107.329 131.028 110.051 129.801 112.641C126.259 118.971 121.09 121.387 114.296 119.892C111.733 119.079 109.589 117.6 107.865 115.459C107.256 114.625 106.677 113.769 106.129 112.89C105.678 111.928 105.218 110.975 104.748 110.031C114.36 100.019 123.947 89.9786 133.509 79.9074C133.546 79.8582 133.559 79.8029 133.549 79.7417Z" fill="white"/>
<path opacity="0.996" fill-rule="evenodd" clip-rule="evenodd" d="M10.0605 50.1569C23.2116 50.1431 36.3627 50.1569 49.5137 50.1984C55.1545 50.6355 60.3098 52.5415 64.9793 55.9164C72.9276 62.1531 75.7814 70.2882 73.5406 80.3217C72.0038 85.3884 69.1238 89.3803 64.9004 92.2965C62.6859 93.7501 60.345 94.8555 57.8777 95.6113C63.7667 106.555 69.6584 117.536 75.5527 128.552C67.0573 128.649 58.5617 128.663 50.066 128.594C47.3092 122.836 44.6264 117.076 42.0176 111.315C41.4353 110.148 40.8961 108.959 40.4 107.752C39.0479 104.926 37.7197 102.122 36.4152 99.3405C36.4415 99.3131 36.4679 99.285 36.4941 99.2576C35.9327 98.2582 35.4461 97.2223 35.0344 96.15C34.2157 94.5108 33.4267 92.8534 32.6672 91.1778C32.6277 103.691 32.6146 116.205 32.6277 128.718C25.1054 128.718 17.5829 128.718 10.0605 128.718C10.0605 102.531 10.0605 76.344 10.0605 50.1569ZM32.5488 61.593C34.9951 61.5792 37.4412 61.593 39.8871 61.6345C45 62.0658 48.5244 64.7453 50.4605 69.6729C50.4276 69.9087 50.4801 70.1436 50.6184 70.3773C51.2082 72.7275 51.3265 75.1307 50.9734 77.587C50.5226 82.1809 48.1686 85.1779 43.9113 86.5785C41.9672 87.0831 39.9946 87.3873 37.9934 87.49C36.1791 87.5638 34.3642 87.6052 32.5488 87.6143C32.5488 78.9405 32.5488 70.2668 32.5488 61.593Z" fill="white"/>
<path opacity="0.996" fill-rule="evenodd" clip-rule="evenodd" d="M164.401 50.1569C176.606 50.1173 188.811 50.1587 201.014 50.2812C210.365 50.9804 218.544 54.5714 225.554 61.0544C232.522 68.133 236.414 76.641 237.232 86.5784C237.546 89.5452 237.546 92.5153 237.232 95.487C237.221 95.7091 237.247 95.9163 237.311 96.1085C236.875 99.6645 236.073 103.131 234.904 106.509C231.007 116.633 224.063 123.346 214.073 126.646C212.145 127.347 210.199 127.816 208.234 128.055C207.075 128.256 205.918 128.449 204.762 128.635C204.568 128.597 204.371 128.57 204.17 128.552C203.389 128.601 202.612 128.684 201.842 128.801C189.367 128.718 176.887 128.691 164.401 128.718C164.401 102.531 164.401 76.344 164.401 50.1569ZM185.864 61.0958C188.694 61.1725 191.509 61.1725 194.307 61.0958C200.618 61.5532 205.656 64.5365 209.417 70.0458C210.526 71.8772 211.473 73.8109 212.258 75.8467C212.435 76.5969 212.658 77.3289 212.929 78.0428C212.892 78.0771 212.866 78.1185 212.85 78.1671C213.08 78.7271 213.264 79.3071 213.402 79.9074C214.274 84.6898 214.38 89.551 213.718 94.4926C213.512 96.7947 213.039 99.1018 212.297 101.412C211.27 105.404 209.416 108.953 206.734 112.061C203.906 115.107 200.513 116.903 196.555 117.448C195.509 117.621 194.457 117.731 193.399 117.779C190.903 117.777 188.392 117.777 185.864 117.779C185.864 98.8847 185.864 79.9902 185.864 61.0958Z" fill="white"/>
<path opacity="0.994" fill-rule="evenodd" clip-rule="evenodd" d="M243.307 50.1569C259.344 50.1293 275.375 50.157 291.401 50.2398C291.454 54.4109 291.454 58.5821 291.401 62.7532C291.322 62.8085 291.243 62.8637 291.164 62.919C282.721 62.8085 274.278 62.8085 265.835 62.919C265.796 69.2999 265.782 75.6809 265.796 82.062C273.923 82.062 282.05 82.062 290.178 82.062C290.23 86.2926 290.177 90.5049 290.02 94.6998C281.945 94.7412 273.87 94.7553 265.796 94.7412C265.77 101.841 265.796 108.94 265.875 116.039C274.856 116.067 283.851 116.067 292.861 116.039C292.861 120.265 292.861 124.492 292.861 128.718C276.324 128.745 259.793 128.718 243.268 128.635C243.202 102.47 243.215 76.3106 243.307 50.1569Z" fill="white"/>
</svg>
