<svg xmlns="http://www.w3.org/2000/svg" width="304" height="54" viewBox="0 0 304 54" fill="none">
  <path fill-rule="evenodd" clip-rule="evenodd" d="M302.089 46.7699C302.089 46.3329 301.895 45.8731 301.509 45.6538C301.119 45.4232 300.684 45.4004 300.247 45.4004H297.99V50.5776H298.622V48.1896H299.787L301.265 50.5776H302.017L300.453 48.1896C301.376 48.1637 302.089 47.7884 302.089 46.7699ZM299.592 47.6909H298.62V45.8602H300.099C300.742 45.8602 301.447 45.9576 301.447 46.7585C301.449 47.8128 300.318 47.6909 299.592 47.6909ZM272.559 21.74L282.03 11.6277C282.579 10.8853 282.852 10.3655 282.852 9.92035C282.852 9.17797 282.213 8.88069 280.205 8.88069H277.816V2.49652H303.681V8.88069H300.282C296.358 8.88069 295.628 9.47362 290.152 16.3776L275.17 32.5574V42.4309C275.17 44.9569 276.445 45.8455 280.097 45.8455H285.753V52.0055H249.526V45.8455H255.182C258.831 45.8455 260.109 44.9569 260.109 42.4309V32.5574L242.462 13.0361C239.547 9.62307 239.949 8.88069 231.83 8.88069V2.49652H264.593V8.88069H262.26C259.887 8.88069 258.881 9.32579 258.881 10.216C258.881 10.96 259.61 11.5529 260.067 12.1459L268.995 21.8765C270.056 22.9795 271.35 23.1224 272.559 21.74ZM52.7405 2.49489H60.6435V20.3088H53.3448C52.6982 16.748 50.4695 15.3623 48.4373 13.4942C44.7708 10.125 36.8304 7.31956 30.1522 7.31956C21.5328 7.31956 14.2584 9.99344 14.2584 13.9247C14.2584 24.8379 63.553 16.1534 63.553 36.7875C63.553 47.5496 52.9939 53.5618 34.0314 53.5618C27.467 53.5618 17.5333 51.5247 11.6722 48.4122C9.83494 47.3514 9.0552 49.4161 8.71081 52.0039H0.607947V33.5954H7.93756C9.55391 38.2722 11.7811 39.2355 13.8295 41.0923C17.3839 44.3591 25.8441 46.7357 33.6026 46.6594C45.3004 46.5441 49.3226 43.9871 49.3226 40.2752C49.3226 36.5649 45.3443 35.6731 32.5256 33.6701L21.6416 31.8881C9.35897 30.0313 0.41626 27.2859 0.41626 17.4888C0.41626 7.31956 11.7291 0.935389 29.6161 0.935389C37.1537 0.935389 43.4599 1.94257 49.5127 5.36371C51.1891 6.45373 52.7616 6.58369 52.7405 2.49489ZM206.974 32.3202L207.13 12.5211C207.13 9.9236 205.779 9.03338 201.917 9.03338H197.38V2.87338H226.247V9.03338H222.485C218.62 9.03338 217.269 9.92522 217.269 12.5211V52.3808L205.97 52.2914L169.381 17.6431V42.8061C169.381 45.3306 170.732 46.2939 174.594 46.2939H179.617V52.3808H149.637V46.2939H154.605C158.466 46.2939 159.817 45.3289 159.817 42.8061V12.5211C159.817 9.9236 158.466 9.03338 154.605 9.03338H149.637V2.87338H175.557L206.974 32.3202ZM110.281 0.561768C87.2751 0.561768 72.8742 10.7326 72.8742 27.0601C72.8742 43.0953 87.0753 53.1881 109.579 53.1881C133.482 53.1881 147.385 43.2431 147.385 26.2447C147.387 10.9551 132.383 0.561768 110.281 0.561768ZM109.758 46.7325C97.0236 46.7325 89.7037 39.3834 89.7037 26.6898C89.7037 14.295 97.342 6.94594 110.395 6.94594C122.916 6.94594 130.236 14.4445 130.236 27.2112C130.236 39.6807 122.809 46.7325 109.758 46.7325Z" fill="white"/>
</svg>